<?xml version="1.0" standalone="no"?>
<!DOCTYPE svg PUBLIC "-//W3C//DTD SVG 20010904//EN"
 "http://www.w3.org/TR/2001/REC-SVG-20010904/DTD/svg10.dtd">
<svg version="1.0" xmlns="http://www.w3.org/2000/svg"
 width="579.000000pt" height="579.000000pt" viewBox="0 0 579.000000 579.000000"
 preserveAspectRatio="xMidYMid meet">

<g transform="translate(0.000000,579.000000) scale(0.100000,-0.100000)"
fill="currentColor" stroke="none">
<path d="M1870 4667 c-49 -16 -133 -102 -148 -153 -8 -27 -12 -115 -12 -248
l0 -206 -165 0 -165 0 0 170 c0 227 20 210 -240 210 -266 0 -250 14 -250 -214
l0 -165 -179 -3 c-175 -3 -180 -4 -207 -28 -46 -43 -54 -77 -54 -225 l0 -137
29 -29 c22 -21 39 -29 65 -29 l36 0 0 -1153 c0 -1317 -6 -1225 83 -1312 32
-31 68 -55 93 -63 32 -9 509 -12 2141 -12 2330 0 2133 -6 2214 67 22 20 50 55
62 77 l22 41 3 1178 2 1177 38 0 c86 0 105 43 100 222 -3 120 -5 136 -26 166
-41 57 -62 62 -252 62 l-170 0 0 165 c0 228 15 215 -243 215 -260 0 -241 16
-245 -209 l-3 -171 -159 0 -159 0 -3 223 c-3 205 -5 225 -25 262 -28 52 -68
89 -123 114 -44 20 -60 21 -1035 20 -692 -1 -1001 -4 -1025 -12z m1910 -437
l0 -170 -890 0 -890 0 0 170 0 170 890 0 890 0 0 -170z m1190 -1762 c0 -1048
-1 -1143 -17 -1160 -15 -17 -93 -18 -2060 -18 -2030 0 -2043 0 -2063 20 -20
20 -20 33 -20 1160 l0 1140 2080 0 2080 0 0 -1142z"/>
<path d="M3083 3304 c-7 -3 -156 -180 -330 -392 -175 -213 -352 -429 -395
-481 -79 -96 -90 -121 -64 -157 13 -18 30 -19 246 -22 212 -3 231 -4 226 -20
-19 -64 -146 -585 -146 -600 0 -24 31 -52 56 -52 11 0 36 17 56 38 27 29 553
663 736 887 37 46 40 74 11 101 -19 17 -41 19 -245 22 -153 2 -224 7 -224 14
0 6 35 145 77 310 82 323 85 351 33 355 -14 1 -31 -1 -37 -3z"/>
<path d="M1389 3253 c-9 -10 -15 -50 -17 -115 l-4 -98 -93 0 c-114 0 -125 -8
-125 -85 0 -74 17 -85 131 -85 l87 0 4 -101 c4 -119 11 -129 94 -129 74 0 84
17 84 137 l0 93 95 0 c82 0 98 3 115 20 25 25 27 95 4 128 -14 20 -23 22 -115
22 l-99 0 0 93 c0 122 -10 137 -89 137 -42 0 -62 -5 -72 -17z"/>
<path d="M4062 3024 c-30 -21 -31 -95 -2 -124 19 -19 33 -20 273 -20 245 0
255 1 273 21 26 29 26 105 0 125 -30 22 -512 21 -544 -2z"/>
</g>
</svg>
